<svg xmlns="http://www.w3.org/2000/svg" xmlns:xlink="http://www.w3.org/1999/xlink" width="4956" height="1254" viewBox="0 0 4956 1254"><defs><style>.a,.d{fill:none;}.b{clip-path:url(#d);}.c,.i{fill:#fff;}.c,.d,.e,.f{stroke:#000;}.c,.f{stroke-width:50px;}.d{stroke-width:25px;}.f,.j{fill:#fff48e;}.g{clip-path:url(#a);}.h{clip-path:url(#b);}.k{stroke:none;}</style><clipPath id="a"><rect class="a" width="4956" height="1254" transform="translate(-13.57 -223.4)"/></clipPath><clipPath id="b"><rect class="a" width="1254" height="1254" transform="translate(-174)"/></clipPath><clipPath id="d"><rect width="4956" height="1254"/></clipPath></defs><g id="c" class="b"><g transform="translate(2261)"><g class="c" transform="translate(276 863)"><path class="k" d="M0,0H354a0,0,0,0,1,0,0V177A177,177,0,0,1,177,354h0A177,177,0,0,1,0,177V0A0,0,0,0,1,0,0Z"/><path class="a" d="M25,25H329a0,0,0,0,1,0,0V177A152,152,0,0,1,177,329h0A152,152,0,0,1,25,177V25A0,0,0,0,1,25,25Z"/></g><line class="d" x2="310" transform="translate(295.5 1092.5)"/><path d="M0,0H266.488a12.5,12.5,0,0,1,12.5,12.5v0a12.5,12.5,0,0,1-12.5,12.5H0a0,0,0,0,1,0,0V0A0,0,0,0,1,0,0Z" transform="translate(295.5 986.459) rotate(-11)"/><path d="M0,0H266.488a12.5,12.5,0,0,1,12.5,12.5v0a12.5,12.5,0,0,1-12.5,12.5H0a0,0,0,0,1,0,0V0A0,0,0,0,1,0,0Z" transform="translate(612.132 1015.314) rotate(169)"/><g class="e" transform="translate(397 1174)"><rect class="k" width="113" height="62" rx="27"/><rect class="a" x="0.5" y="0.5" width="112" height="61" rx="26.5"/></g><g class="f"><circle class="k" cx="453" cy="453" r="453"/><circle class="a" cx="453" cy="453" r="428"/></g></g><g class="g" transform="translate(13.57 223.4)"><path d="M181.87,881A42.209,42.209,0,0,1,157,873q-11.35-8-15.57-19.79L16.84,479.37q-6.75-26.1.42-42.53t31.58-16.41q16,0,26.52,8.84t17.26,29.89L198.71,790.91H169.24l100.2-338.49q4.2-14.31,14.31-23.15t27.79-8.84q16.83,0,27.36,8.84a41.83,41.83,0,0,1,13.9,23.15L434.47,770.7H421.84L521.2,459.16Q533,420.45,565,420.43q23.57,0,32,16.41t-.84,42.53L471.52,853.21Q468.15,865,457.21,873A41.69,41.69,0,0,1,432,881a44.07,44.07,0,0,1-25.26-8q-11.81-8-15.16-19.79L304.8,532.41h8.42l-90.93,320.8Q218.92,865,207.55,873A43.49,43.49,0,0,1,181.87,881Z" transform="translate(-13.57 -223.4)"/><path d="M731.7,713.44q-18.54,0-30.74-12.21T688.75,670.5V266.34q0-19.36,12.21-31.15T731.7,223.4q19.35,0,31.15,11.79t11.79,31.15V670.5q0,18.53-11.79,30.73T731.7,713.44Zm0,168.4q-18.54,0-30.74-12.21T688.75,838.9V463.37q0-19.37,12.21-31.16t30.74-11.78q19.35,0,31.15,11.78t11.79,31.16V838.9q0,18.52-11.79,30.73T731.7,881.84Zm346.06,0q-18.54,0-30.74-12.21t-12.21-30.73V631.77q0-48-17.68-78.31t-47.57-45q-29.89-14.73-68.62-14.74-35.37,0-64,14.31T791.48,546.3q-16.86,24-16.84,55.16h-53q0-53.06,25.68-94.73t70.31-66.1q44.63-24.4,100.2-24.41,58.1,0,104,24.83t72.42,72.84q26.52,48,26.52,117.88V838.9q0,18.52-12.21,30.73t-30.8,12.21Z" transform="translate(-13.57 -223.4)"/><path d="M1455.81,884.37q-61.47,0-110.3-30.74t-77-83.35q-28.21-52.62-28.21-119.15T1271,531.57a227.389,227.389,0,0,1,83.35-83.78q52.62-30.72,118.3-30.73t117.88,30.73a228.57,228.57,0,0,1,82.94,83.78q30.73,53,30.74,119.56h-32.84q0,66.52-28.21,119.15t-77,83.35Q1517.27,884.38,1455.81,884.37Zm16.84-75.78q42.94,0,76.63-20.63t53-56.42q19.37-35.77,19.37-80.41,0-45.46-19.37-81.25t-53-56.41q-33.69-20.62-76.63-20.63-42.11,0-76.2,20.63a148.779,148.779,0,0,0-53.88,56.41q-19.8,35.8-19.79,81.25,0,44.64,19.79,80.41A148.6,148.6,0,0,0,1396.45,788q34.11,20.6,76.2,20.59Zm188.61,73.25q-18.52,0-30.73-12.21t-12.21-30.73V710.07l16-89.25,69.89,30.31V838.9q0,18.52-12.21,30.73t-30.74,12.21Z" transform="translate(-13.57 -223.4)"/><path d="M1812.81,509.68q-17.68,0-28.63-10.11a32.91,32.91,0,0,1-10.94-25.26q0-16.83,10.94-26.94t28.63-10.1h194.5q17.68,0,28.63,10.1t11,26.94a33,33,0,0,1-11,25.26q-10.95,10.11-28.63,10.11ZM1999.74,881q-42.12,0-75.78-21.47t-53-58.52q-19.38-37-19.37-83.36V316q0-18.51,11.79-30.31t30.31-11.79q18.51,0,30.32,11.79T1935.74,316V717.65q0,33.69,18.53,56.42t45.47,22.73h28.62q15.17,0,25.68,11.79t10.53,30.31q0,18.52-13.89,30.31T2014.89,881Z" transform="translate(-13.57 -223.4)"/><path d="M2714.58,345.49q-22.74,0-39.15-16.42T2659,289.92q0-22.74,16.42-39.16t39.15-16.42q22.74,0,39.15,16.42t16.42,39.16q0,22.72-16.42,39.15T2714.58,345.49Zm0,535.51q-18.52,0-30.73-12.21t-12.21-30.73V463.37q0-19.37,12.21-31.16t30.73-11.78q19.36,0,31.15,11.78t11.79,31.16V838.06q0,18.53-11.79,30.73T2714.58,881Z" transform="translate(-13.57 -223.4)"/><path d="M3619.72,884.37q-65.68,0-118.3-30.74a227.169,227.169,0,0,1-83.36-83.77q-30.75-53.05-30.73-119.57t28.2-119.14q28.2-52.62,77-83.36t110.3-30.73q49.66,0,91.78,20.63a206.9,206.9,0,0,1,70.72,56V266.34q0-19.36,12.21-31.15t30.74-11.79q19.35,0,31.15,11.79t11.79,31.15v384q0,66.53-30.73,119.57a228.287,228.287,0,0,1-82.94,83.77Q3685.39,884.38,3619.72,884.37Zm0-75.78q42.95,0,76.62-20.63t53-56.84q19.35-36.18,19.36-80.83,0-45.46-19.36-80.83a147.681,147.681,0,0,0-53-56q-33.69-20.62-76.62-20.63-42.12,0-76.2,20.63a149.52,149.52,0,0,0-53.89,56q-19.8,35.37-19.79,80.83,0,44.64,19.79,80.83T3543.52,788q34.1,20.6,76.2,20.59Z" transform="translate(-13.57 -223.4)"/><path d="M4211.63,884.37q-68.19,0-120.4-29.89a216.48,216.48,0,0,1-82.1-82.52q-29.9-52.61-29.89-120.83,0-69,29.89-121.67a216.665,216.665,0,0,1,82.1-82.51q52.2-29.88,120.4-29.89,67.36,0,119.57,29.89a216.782,216.782,0,0,1,82.09,82.51q29.88,52.63,29.89,121.67,0,68.21-29.47,120.83A213.6,213.6,0,0,1,4332,854.48Q4279.82,884.38,4211.63,884.37Zm0-75.78q43.77,0,77.47-20.21a141.41,141.41,0,0,0,52.621-55.57q18.949-35.37,18.95-81.68T4341.72,569q-18.95-35.77-52.62-56t-77.47-20.21q-43.79,0-77.46,20.21t-53.05,56q-19.38,35.79-19.36,82.09t19.36,81.68a144.319,144.319,0,0,0,53.05,55.57q33.66,20.25,77.46,20.25Z" transform="translate(-13.57 -223.4)"/></g><g class="h" transform="translate(2261)"><path class="i" d="M450,863H804v177a177,177,0,0,1-177,177h0a177,177,0,0,1-177-177Z" transform="translate(-174)"/><path d="M450,863H804v177c0,97.6-79.4,177-177,177s-177-79.4-177-177Zm304,50H500v127a127,127,0,0,0,254,0Z" transform="translate(-174)"/><path d="M310,12.5H0v-25H310Z" transform="translate(295.5 1092.5)"/><path d="M469.5,986.46l261.59-50.85a12.5,12.5,0,0,1,14.66,9.89h0a12.51,12.51,0,0,1-9.89,14.65L474.27,1011h0Z" transform="translate(-174)"/><path d="M786.13,1015.31l-261.59,50.85a12.5,12.5,0,0,1-14.66-9.88h0a12.51,12.51,0,0,1,9.89-14.66l261.59-50.85h0Z" transform="translate(-174)"/><rect width="113" height="62" rx="27" transform="translate(397 1174)"/><path d="M26.5-.5h59a26.978,26.978,0,0,1,27,27v8a26.978,26.978,0,0,1-27,27h-59a26.978,26.978,0,0,1-27-27v-8a26.978,26.978,0,0,1,27-27Zm59,61a26.029,26.029,0,0,0,26-26v-8a26.029,26.029,0,0,0-26-26h-59a26.029,26.029,0,0,0-26,26v8a26.029,26.029,0,0,0,26,26Z" transform="translate(397.5 1174.5)"/><circle class="j" cx="453" cy="453" r="453"/><path d="M428-25c249.785,0,453,203.215,453,453S677.785,881,428,881-25,677.785-25,428,178.215-25,428-25Zm0,856c222.215,0,403-180.785,403-403S650.215,25,428,25,25,205.785,25,428,205.785,831,428,831Z" transform="translate(25 25)"/><path d="M629.14,374.49q-22.73,0-39.15-16.42t-16.42-39.15q0-22.74,16.42-39.16t39.15-16.42q22.74,0,39.15,16.42t16.42,39.16q0,22.72-16.42,39.15T629.14,374.49Zm0,535.51q-18.52,0-30.73-12.21T586.2,867.06V492.37q0-19.37,12.21-31.16t30.73-11.78q19.36,0,31.16,11.78t11.78,31.16V867.06q0,18.53-11.78,30.73T629.14,910Z" transform="translate(-174)"/></g></g></svg>